<svg id="Capa_1" data-name="Capa 1" xmlns="http://www.w3.org/2000/svg" viewBox="0 0 539.33 121"><defs><style>.cls-1,.cls-2{fill:#fff;}.cls-2{stroke:#fff;stroke-miterlimit:3.86;stroke-width:0.2px;}</style></defs><title>logo</title><path class="cls-1" d="M124.4,10.6a13,13,0,0,1-.8,4.6,9.9,9.9,0,0,1-2.4,3.5,10.62,10.62,0,0,1-3.9,2.3,17.28,17.28,0,0,1-5.5.8h-3.9V34.2a0.6,0.6,0,0,1-.1.4,1.38,1.38,0,0,1-.4.3,1.48,1.48,0,0,1-.7.1,3.42,3.42,0,0,1-1.1.1,3.75,3.75,0,0,1-1.1-.1c-0.3,0-.5-0.1-0.7-0.1a1.38,1.38,0,0,1-.4-0.3,0.48,0.48,0,0,1-.1-0.4V2.5a1.75,1.75,0,0,1,.6-1.5,2.08,2.08,0,0,1,1.2-.5h7.4a14.08,14.08,0,0,1,2.1.1c0.7,0.1,1.5.2,2.4,0.4a10.85,10.85,0,0,1,2.8,1.1,8.18,8.18,0,0,1,2.5,2,7.61,7.61,0,0,1,1.5,2.8,11.48,11.48,0,0,1,.6,3.7h0Zm-4.8.3a7.24,7.24,0,0,0-.8-3.5,6.48,6.48,0,0,0-1.9-2.1,5.91,5.91,0,0,0-2.4-.9,19.42,19.42,0,0,0-2.4-.2h-4.2V18H112a10.62,10.62,0,0,0,3.4-.5,6.13,6.13,0,0,0,2.3-1.5,5.94,5.94,0,0,0,1.4-2.3,7.78,7.78,0,0,0,.5-2.8h0Z" transform="translate(-0.4 -0.4)"/><path class="cls-1" d="M155.3,33.3a4.4,4.4,0,0,1,.2,1,0.48,0.48,0,0,1-.2.5,1.17,1.17,0,0,1-.7.2c-0.3,0-.8.1-1.3,0.1A4.89,4.89,0,0,1,152,35a5.64,5.64,0,0,1-.7-0.1,1.38,1.38,0,0,1-.4-0.3,1.47,1.47,0,0,1-.2-0.4l-2.9-8.4H133.5l-2.8,8.3a1.47,1.47,0,0,1-.2.4,1.38,1.38,0,0,1-.4.3,6.37,6.37,0,0,1-.7.2c-0.3,0-.7.1-1.2,0.1a5.28,5.28,0,0,1-1.3-.1,1.45,1.45,0,0,1-.7-0.2,0.76,0.76,0,0,1-.2-0.5,5.76,5.76,0,0,1,.2-1L137.7,1.4A2.19,2.19,0,0,1,138,.9a2.19,2.19,0,0,1,.5-0.3,2.22,2.22,0,0,1,.9-0.1c0.4,0,.8-0.1,1.3-0.1a5.72,5.72,0,0,1,1.4.1c0.4,0,.7.1,0.9,0.1a2.19,2.19,0,0,1,.5.3,2.19,2.19,0,0,1,.3.5l11.5,31.9h0ZM140.5,5.1h0l-6,17.1h12l-6-17.1h0Z" transform="translate(-0.4 -0.4)"/><path class="cls-1" d="M180.8,2.5a2.77,2.77,0,0,1-.1.9,1.07,1.07,0,0,1-.2.6l-0.3.3a0.48,0.48,0,0,1-.4.1h-9.7V34.2a0.6,0.6,0,0,1-.1.4,1.38,1.38,0,0,1-.4.3,1.48,1.48,0,0,1-.7.1,3.42,3.42,0,0,1-1.1.1,3.75,3.75,0,0,1-1.1-.1c-0.3,0-.5-0.1-0.7-0.1a1.38,1.38,0,0,1-.4-0.3,0.48,0.48,0,0,1-.1-0.4V4.4H156a0.6,0.6,0,0,1-.4-0.1L155.3,4c-0.1-.2-0.1-0.4-0.2-0.6S155,2.9,155,2.5a2.77,2.77,0,0,1,.1-0.9,2,2,0,0,1,.2-0.6,0.43,0.43,0,0,1,.3-0.3A0.6,0.6,0,0,1,156,.6h23.9a0.6,0.6,0,0,1,.4.1L180.6,1a1.42,1.42,0,0,1,.2.6V2.5h0Z" transform="translate(-0.4 -0.4)"/><path class="cls-1" d="M209.7,33.3a4.4,4.4,0,0,1,.2,1,0.48,0.48,0,0,1-.2.5,1.17,1.17,0,0,1-.7.2c-0.3,0-.8.1-1.3,0.1a4.89,4.89,0,0,1-1.3-.1,5.64,5.64,0,0,1-.7-0.1,1.38,1.38,0,0,1-.4-0.3,1.47,1.47,0,0,1-.2-0.4l-2.9-8.4H187.9l-2.8,8.3a1.47,1.47,0,0,1-.2.4,1.38,1.38,0,0,1-.4.3,6.37,6.37,0,0,1-.7.2c-0.3,0-.7.1-1.2,0.1a5.28,5.28,0,0,1-1.3-.1,1.45,1.45,0,0,1-.7-0.2,0.76,0.76,0,0,1-.2-0.5,5.76,5.76,0,0,1,.2-1L192.1,1.4a2.19,2.19,0,0,1,.3-0.5,2.19,2.19,0,0,1,.5-0.3,2.22,2.22,0,0,1,.9-0.1c0.4,0,.8-0.1,1.3-0.1a5.72,5.72,0,0,1,1.4.1c0.4,0,.7.1,0.9,0.1a2.19,2.19,0,0,1,.5.3,2.19,2.19,0,0,1,.3.5l11.5,31.9h0ZM194.9,5.1h0l-6,17.1h12l-6-17.1h0Z" transform="translate(-0.4 -0.4)"/><path class="cls-1" d="M235.2,2.5a2.77,2.77,0,0,1-.1.9,1.07,1.07,0,0,1-.2.6l-0.3.3a0.48,0.48,0,0,1-.4.1h-9.7V34.2a0.6,0.6,0,0,1-.1.4,1.38,1.38,0,0,1-.4.3,1.48,1.48,0,0,1-.7.1,3.42,3.42,0,0,1-1.1.1,3.75,3.75,0,0,1-1.1-.1c-0.3,0-.5-0.1-0.7-0.1a1.38,1.38,0,0,1-.4-0.3,0.48,0.48,0,0,1-.1-0.4V4.4h-9.7a0.6,0.6,0,0,1-.4-0.1L209.5,4c-0.1-.2-0.1-0.4-0.2-0.6s-0.1-.5-0.1-0.9a2.77,2.77,0,0,1,.1-0.9,2,2,0,0,1,.2-0.6,0.43,0.43,0,0,1,.3-0.3,0.6,0.6,0,0,1,.4-0.1h23.9a0.6,0.6,0,0,1,.4.1L234.8,1c0.1,0.2.1,0.4,0.2,0.6a1.22,1.22,0,0,1,.2.9h0Z" transform="translate(-0.4 -0.4)"/><path class="cls-1" d="M264.1,33.3a4.4,4.4,0,0,1,.2,1,0.48,0.48,0,0,1-.2.5,1.17,1.17,0,0,1-.7.2c-0.3,0-.8.1-1.3,0.1a4.89,4.89,0,0,1-1.3-.1,5.64,5.64,0,0,1-.7-0.1,1.38,1.38,0,0,1-.4-0.3,1.47,1.47,0,0,1-.2-0.4l-2.9-8.4H242.3l-2.8,8.3a1.47,1.47,0,0,1-.2.4,1.38,1.38,0,0,1-.4.3,6.37,6.37,0,0,1-.7.2c-0.3,0-.7.1-1.2,0.1a5.28,5.28,0,0,1-1.3-.1,1.45,1.45,0,0,1-.7-0.2,0.76,0.76,0,0,1-.2-0.5,5.76,5.76,0,0,1,.2-1L246.5,1.4a2.19,2.19,0,0,1,.3-0.5,2.19,2.19,0,0,1,.5-0.3,2,2,0,0,1,.8-0.1c0.4,0,.8-0.1,1.3-0.1a5.72,5.72,0,0,1,1.4.1c0.4,0,.7.1,0.9,0.1a2.19,2.19,0,0,1,.5.3,2.19,2.19,0,0,1,.3.5l11.6,31.9h0ZM249.3,5.1h0l-6,17.1h12l-6-17.1h0Z" transform="translate(-0.4 -0.4)"/><path class="cls-1" d="M286.5,25.2a10,10,0,0,1-.9,4.3,8.7,8.7,0,0,1-2.5,3.2,11,11,0,0,1-3.7,2,16.44,16.44,0,0,1-4.6.7,15.82,15.82,0,0,1-3.2-.3,13.8,13.8,0,0,1-2.6-.7,11.39,11.39,0,0,1-1.9-.9,6.29,6.29,0,0,1-1.1-.8,5.58,5.58,0,0,1-.5-0.8,4.89,4.89,0,0,1-.1-1.3,3.08,3.08,0,0,1,.1-1,0.85,0.85,0,0,1,.2-0.6,0.43,0.43,0,0,1,.3-0.3,0.48,0.48,0,0,1,.4-0.1,2.26,2.26,0,0,1,1,.5c0.5,0.3,1,.6,1.8,1a12.85,12.85,0,0,0,2.6,1,12.3,12.3,0,0,0,3.5.5,7.66,7.66,0,0,0,2.7-.4,7,7,0,0,0,2.1-1.1,4.89,4.89,0,0,0,1.4-1.8,6,6,0,0,0,.5-2.4,4.09,4.09,0,0,0-.7-2.5,5.16,5.16,0,0,0-1.8-1.8,14.81,14.81,0,0,0-2.5-1.4c-0.9-.4-1.9-0.9-2.8-1.3s-1.9-1-2.8-1.5a15,15,0,0,1-2.5-1.9,10,10,0,0,1-1.8-2.6,9.61,9.61,0,0,1-.7-3.6,9.21,9.21,0,0,1,.8-3.8,7.63,7.63,0,0,1,2.2-2.8A8.62,8.62,0,0,1,272.7,1a14.21,14.21,0,0,1,4.2-.6,17.85,17.85,0,0,1,2.3.2,14.19,14.19,0,0,1,2.2.5,17.07,17.07,0,0,1,1.8.7,3.21,3.21,0,0,1,1,.7,0.78,0.78,0,0,1,.3.4,0.48,0.48,0,0,1,.1.4,4.33,4.33,0,0,1,.1.5V4.6a2.77,2.77,0,0,1-.1.9c0,0.2-.1.5-0.1,0.6a1.47,1.47,0,0,1-.2.4,0.37,0.37,0,0,1-.3.1,1.63,1.63,0,0,1-.9-0.4c-0.4-.2-0.9-0.5-1.5-0.8a16.47,16.47,0,0,0-2.2-.9,7.89,7.89,0,0,0-2.8-.4,6.25,6.25,0,0,0-2.5.4,5.24,5.24,0,0,0-1.8,1,3.07,3.07,0,0,0-1,1.5,5.82,5.82,0,0,0-.3,1.9,4.09,4.09,0,0,0,.7,2.5,5.16,5.16,0,0,0,1.8,1.8,27.5,27.5,0,0,0,2.5,1.5c0.9,0.4,1.9.9,2.9,1.4a20,20,0,0,1,2.9,1.5,11.78,11.78,0,0,1,2.5,1.9,10,10,0,0,1,1.8,2.6,11.08,11.08,0,0,1,.4,3.1h0Z" transform="translate(-0.4 -0.4)"/><path class="cls-1" d="M156,118.2a1.28,1.28,0,0,1-.4,1,2.33,2.33,0,0,1-1.1.7,8.68,8.68,0,0,1-2.1.4,29.6,29.6,0,0,1-3.4.2,33.19,33.19,0,0,1-3.5-.2,8.68,8.68,0,0,1-2.1-.4,2.33,2.33,0,0,1-1.1-.7,1.69,1.69,0,0,1-.3-1V90.4H116.2v27.9a1.69,1.69,0,0,1-.3,1,2.33,2.33,0,0,1-1.1.7,8.68,8.68,0,0,1-2.1.4,29,29,0,0,1-6.8,0,8.68,8.68,0,0,1-2.1-.4,3.46,3.46,0,0,1-1.2-.7,1.69,1.69,0,0,1-.3-1V53.1a1.69,1.69,0,0,1,.3-1,2.23,2.23,0,0,1,1.2-.7,8.68,8.68,0,0,1,2.1-.4,31.14,31.14,0,0,1,3.4-.2,29.6,29.6,0,0,1,3.4.2,8.68,8.68,0,0,1,2.1.4,2.33,2.33,0,0,1,1.1.7,1.69,1.69,0,0,1,.3,1V78.4H142V53.1a1.69,1.69,0,0,1,.3-1,2.33,2.33,0,0,1,1.1-.7,8.68,8.68,0,0,1,2.1-.4,31.58,31.58,0,0,1,3.5-.2,31.14,31.14,0,0,1,3.4.2,8.68,8.68,0,0,1,2.1.4,2.33,2.33,0,0,1,1.1.7,1.78,1.78,0,0,1,.4,1v65.1h0Z" transform="translate(-0.4 -0.4)"/><path class="cls-1" d="M185.6,118.2a1.28,1.28,0,0,1-.4,1,2.33,2.33,0,0,1-1.1.7,8.68,8.68,0,0,1-2.1.4,29.6,29.6,0,0,1-3.4.2,31.14,31.14,0,0,1-3.4-.2,8.68,8.68,0,0,1-2.1-.4,3.46,3.46,0,0,1-1.2-.7,1.69,1.69,0,0,1-.3-1V53.1a1.69,1.69,0,0,1,.3-1,2.23,2.23,0,0,1,1.2-.7,10.9,10.9,0,0,1,2.2-.4,29,29,0,0,1,6.8,0,8.68,8.68,0,0,1,2.1.4,2.33,2.33,0,0,1,1.1.7,1.78,1.78,0,0,1,.4,1v65.1h-0.1Z" transform="translate(-0.4 -0.4)"/><path class="cls-1" d="M222.4,101a37.57,37.57,0,0,1-.9,8.5,16.48,16.48,0,0,1-3,6.4,13.32,13.32,0,0,1-5.5,4,23,23,0,0,1-8.4,1.4,17.33,17.33,0,0,1-3.2-.3,13.56,13.56,0,0,1-2.9-.6,9.27,9.27,0,0,1-2.2-.8,6.88,6.88,0,0,1-1.3-.7,3,3,0,0,1-.5-0.7,5.13,5.13,0,0,1-.4-1,6.05,6.05,0,0,1-.2-1.5c0-.6-0.1-1.4-0.1-2.3a26.27,26.27,0,0,1,.1-3c0.1-.9.2-1.5,0.3-2a1.87,1.87,0,0,1,.5-1,1.22,1.22,0,0,1,.9-0.3,1.86,1.86,0,0,1,1.1.4c0.4,0.2.9,0.4,1.4,0.7a19.68,19.68,0,0,0,1.9.7,9,9,0,0,0,2.5.3,6.25,6.25,0,0,0,2.5-.4,4,4,0,0,0,1.8-1.4,6.66,6.66,0,0,0,1.1-2.7,23.27,23.27,0,0,0,.4-4.3V53a1.22,1.22,0,0,1,.3-0.9,2.33,2.33,0,0,1,1.1-.7,9.68,9.68,0,0,1,2.2-.4,29,29,0,0,1,6.8,0,8.68,8.68,0,0,1,2.1.4,2.23,2.23,0,0,1,1.2.7,1.49,1.49,0,0,1,.4.9v48h0Z" transform="translate(-0.4 -0.4)"/><path class="cls-1" d="M299.8,84.9a51.46,51.46,0,0,1-2.1,15.3,31.27,31.27,0,0,1-6.3,11.5,28.55,28.55,0,0,1-10.4,7.2,41.49,41.49,0,0,1-14.3,2.5,42.71,42.71,0,0,1-14.1-2.1,25.33,25.33,0,0,1-10-6.4,26.55,26.55,0,0,1-6-11,56.24,56.24,0,0,1-2-15.8,49.42,49.42,0,0,1,2.1-15A30.05,30.05,0,0,1,243,59.7a28.55,28.55,0,0,1,10.4-7.2A38.14,38.14,0,0,1,267.8,50a41.69,41.69,0,0,1,13.8,2.1,24.28,24.28,0,0,1,10,6.4,28.16,28.16,0,0,1,6.1,10.9,50.53,50.53,0,0,1,2.1,15.5h0Zm-14.7.7a50.57,50.57,0,0,0-.9-9.9,20.79,20.79,0,0,0-2.9-7.6,13.43,13.43,0,0,0-5.4-4.9,18.12,18.12,0,0,0-8.5-1.8,17.36,17.36,0,0,0-8.6,2,15.54,15.54,0,0,0-5.6,5.2,22.39,22.39,0,0,0-3,7.6,44.86,44.86,0,0,0-.9,9.2,52.29,52.29,0,0,0,.9,10.2,22.05,22.05,0,0,0,2.9,7.7,13.43,13.43,0,0,0,5.4,4.9,19.64,19.64,0,0,0,8.6,1.7,17.37,17.37,0,0,0,8.6-1.9,15.54,15.54,0,0,0,5.6-5.2,22.94,22.94,0,0,0,3-7.7,58,58,0,0,0,.8-9.5h0Z" transform="translate(-0.4 -0.4)"/><path class="cls-1" d="M349.9,114.3a18.7,18.7,0,0,1-.2,2.7,8,8,0,0,1-.4,1.8,2,2,0,0,1-.7,1,1.4,1.4,0,0,1-.9.3H316.1a4.36,4.36,0,0,1-3-1,4.25,4.25,0,0,1-1.2-3.4V53.1a1.69,1.69,0,0,1,.3-1,2.23,2.23,0,0,1,1.2-.7,8.68,8.68,0,0,1,2.1-.4,31.14,31.14,0,0,1,3.4-.2,29.6,29.6,0,0,1,3.4.2,8.68,8.68,0,0,1,2.1.4,2.33,2.33,0,0,1,1.1.7,1.78,1.78,0,0,1,.4,1v55.5h21.7a1.22,1.22,0,0,1,.9.3,2,2,0,0,1,.7,1,6,6,0,0,1,.4,1.8,6.38,6.38,0,0,1,.3,2.6h0Z" transform="translate(-0.4 -0.4)"/><path class="cls-1" d="M414.9,94.5a30.79,30.79,0,0,1-1.9,11.3,22.32,22.32,0,0,1-5.5,8.5,24,24,0,0,1-8.9,5.3,38.39,38.39,0,0,1-12.3,1.8,39,39,0,0,1-11.7-1.6,22.61,22.61,0,0,1-8.7-5,21.57,21.57,0,0,1-5.5-8.2A34,34,0,0,1,358.5,95V53.1a1.69,1.69,0,0,1,.3-1,2.33,2.33,0,0,1,1.1-.7,10.9,10.9,0,0,1,2.2-.4,29.6,29.6,0,0,1,3.4-.2,31.14,31.14,0,0,1,3.4.2,8.68,8.68,0,0,1,2.1.4,2.33,2.33,0,0,1,1.1.7,1.78,1.78,0,0,1,.4,1V93.8a21.74,21.74,0,0,0,1,7.1,12.34,12.34,0,0,0,7.4,8,18.23,18.23,0,0,0,5.9,1,15.54,15.54,0,0,0,5.9-1,12.07,12.07,0,0,0,4.4-2.9,14.14,14.14,0,0,0,2.8-4.8,18.88,18.88,0,0,0,1-6.5V53.1a1.69,1.69,0,0,1,.3-1,2.33,2.33,0,0,1,1.1-.7,8.68,8.68,0,0,1,2.1-.4,31.14,31.14,0,0,1,3.4-.2,29.17,29.17,0,0,1,3.3.2,8.68,8.68,0,0,1,2.1.4,2.33,2.33,0,0,1,1.1.7,1.69,1.69,0,0,1,.3,1V94.5h0.3Z" transform="translate(-0.4 -0.4)"/><path class="cls-1" d="M471.3,99.5a21.78,21.78,0,0,1-2,9.5,20.51,20.51,0,0,1-5.5,6.9,23.8,23.8,0,0,1-8.1,4.1,36.48,36.48,0,0,1-16.6.8,52.52,52.52,0,0,1-5.4-1.4,24.29,24.29,0,0,1-3.9-1.8,8.92,8.92,0,0,1-2.2-1.6,3.79,3.79,0,0,1-1-2,18.08,18.08,0,0,1-.3-3.8,23.52,23.52,0,0,1,.1-2.8q0.15-1,.3-1.8a2.89,2.89,0,0,1,.6-1,1.69,1.69,0,0,1,1-.3,4.32,4.32,0,0,1,2.1.9,34.82,34.82,0,0,0,3.5,1.9,31.94,31.94,0,0,0,5.1,2,24,24,0,0,0,6.9.9,16.53,16.53,0,0,0,4.6-.6,9.22,9.22,0,0,0,3.4-1.8,6.72,6.72,0,0,0,2.2-2.8,8.73,8.73,0,0,0,.7-3.7,6,6,0,0,0-1.3-4,14.32,14.32,0,0,0-3.4-3,39.54,39.54,0,0,0-4.6-2.5c-1.7-.8-3.5-1.6-5.4-2.5s-3.6-1.8-5.4-2.9a25,25,0,0,1-4.7-3.9,16.33,16.33,0,0,1-3.3-5.4,18.48,18.48,0,0,1-1.3-7.4,19.89,19.89,0,0,1,1.8-8.7,16.94,16.94,0,0,1,5-6.2,19.83,19.83,0,0,1,7.4-3.7,32.63,32.63,0,0,1,9-1.2,27,27,0,0,1,4.9.4,31.07,31.07,0,0,1,4.6,1,27.65,27.65,0,0,1,3.8,1.4,11.37,11.37,0,0,1,2.2,1.3,3.63,3.63,0,0,1,.7.9,6.21,6.21,0,0,1,.3,1,6.05,6.05,0,0,1,.2,1.5c0,0.6.1,1.4,0.1,2.3a20.12,20.12,0,0,1-.1,2.6,4.84,4.84,0,0,1-.3,1.8,1.87,1.87,0,0,1-.5,1,1.22,1.22,0,0,1-.9.3,4.41,4.41,0,0,1-1.9-.7c-0.9-.5-1.9-1-3.1-1.6a30,30,0,0,0-4.3-1.6,18.12,18.12,0,0,0-5.4-.7,12,12,0,0,0-4,.6,11.3,11.3,0,0,0-2.9,1.5,6.58,6.58,0,0,0-1.7,2.3,7.1,7.1,0,0,0-.5,2.9,6.76,6.76,0,0,0,1.2,4,14.32,14.32,0,0,0,3.4,3,35.69,35.69,0,0,0,4.8,2.5q2.7,1,5.4,2.4a56.07,56.07,0,0,1,5.4,2.9,19.94,19.94,0,0,1,4.7,3.9,19.26,19.26,0,0,1,3.4,5.3,26.3,26.3,0,0,1,1.2,7.6h0Z" transform="translate(-0.4 -0.4)"/><path class="cls-1" d="M538.9,114.9a23.17,23.17,0,0,1,.8,3,1.93,1.93,0,0,1-.4,1.7,2.93,2.93,0,0,1-2.1.6c-1,.1-2.4.2-4.1,0.2s-3.2,0-4.3-.1a6.71,6.71,0,0,1-2.3-.3,2.33,2.33,0,0,1-1.1-.7,3.7,3.7,0,0,1-.5-1.1l-4.6-13.9H494.4L490,117.8a3.1,3.1,0,0,1-.6,1.3,2.42,2.42,0,0,1-1.1.8,8.69,8.69,0,0,1-2.2.4c-0.9.1-2.1,0.1-3.7,0.1a34.69,34.69,0,0,1-3.8-.2,3.42,3.42,0,0,1-1.9-.7,2.06,2.06,0,0,1-.4-1.8,23.18,23.18,0,0,1,.8-3l21.3-61.2a6,6,0,0,1,.7-1.4,2.54,2.54,0,0,1,1.3-.9,13,13,0,0,1,2.6-.4c1.1-.1,2.6-0.1,4.4-0.1,2.1,0,3.8,0,5,.1a10.62,10.62,0,0,1,2.9.4,2.75,2.75,0,0,1,1.5.9,4.77,4.77,0,0,1,.8,1.6l21.3,61.2h0ZM507.3,64.4h0l-9.8,29.3H517l-9.7-29.3h0Z" transform="translate(-0.4 -0.4)"/><path class="cls-2" d="M0.5,0.7V120.4H74.3V0.7H0.5ZM38.6,115.6a1.15,1.15,0,0,1-1.1-1.3c0-1.2.2-1.1,0.6-1.1a1.14,1.14,0,0,1,.9.9C39.3,114.5,39,115.6,38.6,115.6Zm3.4-2c-0.7.1-1.1-.7-1.4-1a2.47,2.47,0,0,0-2.3-1.7c-1.7,0-2.5,2.2-3.1,4.1s-1.2,1.7-1.6,1.7-0.5-.7-0.3-1.7,3.6-4.8,4.2-5.5,0.3-3.6.3-3.6L40,106v3.1c0,0.8,1,1.7,1.9,2.6S42.6,113.5,42,113.6Zm1.6-68.5a8.4,8.4,0,0,1,6.6-2.6A29.72,29.72,0,0,1,46.1,47a15.82,15.82,0,0,0,2.8-.5,11.92,11.92,0,0,1,11.9-1.6c-4.6,5.2-10.1,2.9-12,2.6s-1.4,1-1.4,1c7.6,1.2,8.5,4.7,8.5,4.7C46.8,54.5,45.2,50,45.2,50H40.6V74.1s8.3,0.3,9,.3a0.44,0.44,0,0,1,.5.6c-1.1,1.4-6.2,1.4-6.2,1.4l3.8,2.5c5.3-2.3,8.6.1,8.6,0.1a8.32,8.32,0,0,1,5.1,8.7s1.6,1.8,2,2.3,0.7,0.4.2,0.6a2.66,2.66,0,0,1-1.4-.1l-1.8-1.1S54.9,92,50.5,89s-3.1-9-3.1-9l-6.5-3.9v5.7c5.3,4,4.5,10.6,4.5,10.6s4.7,6,4.9,6.5,0,1-1.9-.8a6.28,6.28,0,0,0-4.3-1.7,13,13,0,0,1,.3,3.6l2.3,0.5,0.1,2.3-2.8-.5a13.52,13.52,0,0,1-6.1,1.5c-0.9,0-8.6-.3-7.4-10.9s8.1-11.1,8.1-11.1V74.3c-2.6,3.7-6,3.2-6,3.2,1.7,4.8-4.1,8.6-4.1,8.6-8.3,4.1-12,1.8-12.6-1s0.5-6.5,6.6-9.2,9.6,0.7,9.6.7a6.06,6.06,0,0,0,4.2-1.1s-1.8-1.8-1.2-2.6,3,0.7,3,.7l0.5-.6V51.8c-2.8-3.2-5-1.4-5-1.4a12.12,12.12,0,0,1-11.6,6C25.2,49.7,32.4,50,32.4,50a2.55,2.55,0,0,0-2.8-1.7c-8.1,1.5-12.1-3.2-12.1-3.2,6.1-2,11.6,1.4,11.6,1.4a11.84,11.84,0,0,1-.9-2.8c3,0.7,9.5,5.4,9.5,5.4l1-.3a49.7,49.7,0,0,0-7.6-6.2c-4.4-2.9-9.3-.3-9.3-0.3-5,2.4-9.7-.8-9.7-0.8s2.4-.8,3.8-1.4a28.77,28.77,0,0,0,3.5-2l-3.2-.3A13.82,13.82,0,0,1,7,35.1c4.9-3,7.1-.8,9,0.6a5.78,5.78,0,0,0,3.2,1.4c0-1.3-3.5-5.8-3.5-5.8C23,32.6,27,40.7,27,40.7l3.3-.3c-3.3-1.3-4.8-7.3-4.8-7.3,8,1.6,8.5,10,8.5,10s3.1,2.6,3.5,2.9a2,2,0,0,0,1.4.2V34.6l-3.8-4.3-3.6-.5a20.06,20.06,0,0,1-12.4,2c3.4-4.5,11.8-4.3,11.8-4.3L29,26.2a12.73,12.73,0,0,1-10.7-7.8c8.6-.2,10.5,6.2,10.5,6.2l2.3,1.6c0-.9-0.3-1.1-0.8-2.4s-1.8-5.1-1.8-5.1c7.2,3.3,7.1,11.2,7.1,11.2,0.6,0.4,3.2,2.3,3.2,2.3V20.7c-7.1,0-9.3-8.4-9.3-8.4,6.7,1.1,7.1,4.2,7.7,4.9a2.17,2.17,0,0,0,1.8.5V13.4c-4.5-3,.9-7.8.9-7.8,5.4,4.6,1.3,7.6,1,7.6v4.3a12.39,12.39,0,0,1,8.3-5c-0.7,6.9-8.4,6.6-8.4,6.6V29.2L42.9,28a18.09,18.09,0,0,1,7-11.1,12.74,12.74,0,0,1-1.1,5,18.09,18.09,0,0,1,11.4-6.1c-1.7,5.1-11.8,9.3-11.8,9.3,8.8,0,9.2,2,9.2,2-4,3.6-14.7,1.7-14.7,1.7l-2.1,2.4V42.1l2-1.9c1.2-8.3,6.1-10.8,6.1-10.8,0.8,2-.2,5.8-0.2,5.8,5.6-6.9,14.5-6.6,14.5-6.6-0.3,3.7-8,5.5-8,5.5l-1.1.6c2.3,0.6,5.7-.6,5.7-0.6,5.6-1.4,7.6.6,7.6,0.6-2.6,2-6.9.7-6.9,0.7-1.5,6.4-14.9,4.2-14.9,4.2l-4.9,5.7v2.2Z" transform="translate(-0.4 -0.4)"/></svg>