<?xml version="1.0" encoding="utf-8"?>
<!-- Generator: Adobe Illustrator 19.2.1, SVG Export Plug-In . SVG Version: 6.00 Build 0)  -->
<svg version="1.1" id="Capa_1" xmlns="http://www.w3.org/2000/svg" xmlns:xlink="http://www.w3.org/1999/xlink" x="0px" y="0px"
	 viewBox="0 0 539.8 121.4" style="enable-background:new 0 0 539.8 121.4;" xml:space="preserve">

<g>
	<polygon class="st0" points="0.5,0.7 74.3,0.7 74.3,120.4 0.5,120.4 0.5,0.7 	"/>
	<path class="st1" d="M124.4,10.6c0,1.7-0.3,3.3-0.8,4.6c-0.6,1.4-1.4,2.6-2.4,3.5c-1,1-2.3,1.7-3.9,2.3c-1.5,0.5-3.3,0.8-5.5,0.8
		h-3.9v12.4c0,0.1,0,0.3-0.1,0.4c-0.1,0.1-0.2,0.2-0.4,0.3c-0.2,0.1-0.4,0.1-0.7,0.1c-0.3,0.1-0.6,0.1-1.1,0.1c-0.4,0-0.8,0-1.1-0.1
		c-0.3,0-0.5-0.1-0.7-0.1c-0.2-0.1-0.3-0.2-0.4-0.3c-0.1-0.1-0.1-0.2-0.1-0.4V2.5c0-0.7,0.2-1.2,0.6-1.5c0.4-0.3,0.8-0.5,1.2-0.5
		h7.4c0.7,0,1.5,0,2.1,0.1c0.7,0.1,1.5,0.2,2.4,0.4c0.9,0.2,1.9,0.6,2.8,1.1c1,0.5,1.8,1.2,2.5,2c0.7,0.8,1.2,1.8,1.5,2.8
		C124.2,8.1,124.4,9.3,124.4,10.6L124.4,10.6z M119.6,10.9c0-1.4-0.3-2.6-0.8-3.5c-0.5-0.9-1.2-1.6-1.9-2.1
		c-0.8-0.5-1.6-0.8-2.4-0.9c-0.8-0.1-1.6-0.2-2.4-0.2h-4.2v13.8h4.1c1.4,0,2.5-0.2,3.4-0.5c0.9-0.4,1.7-0.8,2.3-1.5
		c0.6-0.6,1.1-1.4,1.4-2.3C119.4,12.9,119.6,12,119.6,10.9L119.6,10.9z"/>
	<path class="st1" d="M155.3,33.3c0.1,0.4,0.2,0.7,0.2,1c0,0.2,0,0.4-0.2,0.5c-0.1,0.1-0.4,0.2-0.7,0.2c-0.3,0-0.8,0.1-1.3,0.1
		c-0.5,0-1,0-1.3-0.1c-0.3,0-0.6-0.1-0.7-0.1c-0.2-0.1-0.3-0.2-0.4-0.3c-0.1-0.1-0.1-0.2-0.2-0.4l-2.9-8.4h-14.3l-2.8,8.3
		c-0.1,0.2-0.1,0.3-0.2,0.4c-0.1,0.1-0.2,0.2-0.4,0.3c-0.2,0.1-0.4,0.1-0.7,0.2c-0.3,0-0.7,0.1-1.2,0.1c-0.5,0-0.9,0-1.3-0.1
		c-0.3,0-0.5-0.1-0.7-0.2c-0.1-0.1-0.2-0.3-0.2-0.5c0-0.2,0.1-0.6,0.2-1l11.5-31.9c0.1-0.2,0.2-0.4,0.3-0.5c0.1-0.1,0.3-0.2,0.5-0.3
		c0.2-0.1,0.5-0.1,0.9-0.1c0.4,0,0.8-0.1,1.3-0.1c0.6,0,1,0,1.4,0.1c0.4,0,0.7,0.1,0.9,0.1c0.2,0.1,0.4,0.2,0.5,0.3
		c0.1,0.1,0.2,0.3,0.3,0.5L155.3,33.3L155.3,33.3z M140.5,5.1L140.5,5.1l-6,17.1h12L140.5,5.1L140.5,5.1z"/>
	<path class="st2" d="M180.8,2.5c0,0.3,0,0.6-0.1,0.9c0,0.2-0.1,0.5-0.2,0.6c-0.1,0.1-0.2,0.2-0.3,0.3c-0.1,0.1-0.2,0.1-0.4,0.1
		h-9.7v29.8c0,0.1,0,0.3-0.1,0.4c-0.1,0.1-0.2,0.2-0.4,0.3c-0.2,0.1-0.4,0.1-0.7,0.1c-0.3,0.1-0.6,0.1-1.1,0.1c-0.4,0-0.8,0-1.1-0.1
		c-0.3,0-0.5-0.1-0.7-0.1c-0.2-0.1-0.3-0.2-0.4-0.3c-0.1-0.1-0.1-0.2-0.1-0.4V4.4H156c-0.1,0-0.3,0-0.4-0.1
		c-0.1-0.1-0.2-0.2-0.3-0.3c-0.1-0.2-0.1-0.4-0.2-0.6c0-0.2-0.1-0.5-0.1-0.9c0-0.3,0-0.6,0.1-0.9c0.1-0.3,0.1-0.5,0.2-0.6
		c0.1-0.2,0.2-0.3,0.3-0.3c0.1-0.1,0.3-0.1,0.4-0.1h23.9c0.1,0,0.3,0,0.4,0.1c0.1,0.1,0.2,0.2,0.3,0.3c0.1,0.2,0.2,0.4,0.2,0.6
		C180.8,1.8,180.8,2.1,180.8,2.5L180.8,2.5z"/>
	<path class="st1" d="M209.7,33.3c0.1,0.4,0.2,0.7,0.2,1c0,0.2,0,0.4-0.2,0.5c-0.1,0.1-0.4,0.2-0.7,0.2c-0.3,0-0.8,0.1-1.3,0.1
		c-0.5,0-1,0-1.3-0.1c-0.3,0-0.6-0.1-0.7-0.1c-0.2-0.1-0.3-0.2-0.4-0.3c-0.1-0.1-0.1-0.2-0.2-0.4l-2.9-8.4h-14.3l-2.8,8.3
		c-0.1,0.2-0.1,0.3-0.2,0.4c-0.1,0.1-0.2,0.2-0.4,0.3c-0.2,0.1-0.4,0.1-0.7,0.2c-0.3,0-0.7,0.1-1.2,0.1c-0.5,0-0.9,0-1.3-0.1
		c-0.3,0-0.5-0.1-0.7-0.2c-0.1-0.1-0.2-0.3-0.2-0.5c0-0.2,0.1-0.6,0.2-1l11.5-31.9c0.1-0.2,0.2-0.4,0.3-0.5c0.1-0.1,0.3-0.2,0.5-0.3
		c0.2-0.1,0.5-0.1,0.9-0.1c0.4,0,0.8-0.1,1.3-0.1c0.6,0,1,0,1.4,0.1c0.4,0,0.7,0.1,0.9,0.1c0.2,0.1,0.4,0.2,0.5,0.3
		c0.1,0.1,0.2,0.3,0.3,0.5L209.7,33.3L209.7,33.3z M194.9,5.1L194.9,5.1l-6,17.1h12L194.9,5.1L194.9,5.1z"/>
	<path class="st2" d="M235.2,2.5c0,0.3,0,0.6-0.1,0.9c0,0.2-0.1,0.5-0.2,0.6c-0.1,0.1-0.2,0.2-0.3,0.3c-0.1,0.1-0.2,0.1-0.4,0.1
		h-9.7v29.8c0,0.1,0,0.3-0.1,0.4c-0.1,0.1-0.2,0.2-0.4,0.3c-0.2,0.1-0.4,0.1-0.7,0.1c-0.3,0.1-0.6,0.1-1.1,0.1c-0.4,0-0.8,0-1.1-0.1
		c-0.3,0-0.5-0.1-0.7-0.1c-0.2-0.1-0.3-0.2-0.4-0.3c-0.1-0.1-0.1-0.2-0.1-0.4V4.4h-9.7c-0.1,0-0.3,0-0.4-0.1
		c-0.1-0.1-0.2-0.2-0.3-0.3c-0.1-0.2-0.1-0.4-0.2-0.6c0-0.2-0.1-0.5-0.1-0.9c0-0.3,0-0.6,0.1-0.9c0.1-0.3,0.1-0.5,0.2-0.6
		c0.1-0.2,0.2-0.3,0.3-0.3c0.1-0.1,0.3-0.1,0.4-0.1h23.9c0.1,0,0.3,0,0.4,0.1c0.1,0.1,0.2,0.2,0.3,0.3c0.1,0.2,0.1,0.4,0.2,0.6
		C235.2,1.8,235.2,2.1,235.2,2.5L235.2,2.5z"/>
	<path class="st1" d="M264.1,33.3c0.1,0.4,0.2,0.7,0.2,1c0,0.2,0,0.4-0.2,0.5c-0.1,0.1-0.4,0.2-0.7,0.2c-0.3,0-0.8,0.1-1.3,0.1
		c-0.5,0-1,0-1.3-0.1c-0.3,0-0.6-0.1-0.7-0.1c-0.2-0.1-0.3-0.2-0.4-0.3c-0.1-0.1-0.1-0.2-0.2-0.4l-2.9-8.4h-14.3l-2.8,8.3
		c-0.1,0.2-0.1,0.3-0.2,0.4c-0.1,0.1-0.2,0.2-0.4,0.3c-0.2,0.1-0.4,0.1-0.7,0.2c-0.3,0-0.7,0.1-1.2,0.1c-0.5,0-0.9,0-1.3-0.1
		c-0.3,0-0.5-0.1-0.7-0.2c-0.1-0.1-0.2-0.3-0.2-0.5c0-0.2,0.1-0.6,0.2-1l11.5-31.9c0.1-0.2,0.2-0.4,0.3-0.5c0.1-0.1,0.3-0.2,0.5-0.3
		c0.2-0.1,0.5-0.1,0.8-0.1c0.4,0,0.8-0.1,1.3-0.1c0.6,0,1,0,1.4,0.1c0.4,0,0.7,0.1,0.9,0.1c0.2,0.1,0.4,0.2,0.5,0.3
		c0.1,0.1,0.2,0.3,0.3,0.5L264.1,33.3L264.1,33.3z M249.3,5.1L249.3,5.1l-6,17.1h12L249.3,5.1L249.3,5.1z"/>
	<path class="st2" d="M286.5,25.2c0,1.6-0.3,3-0.9,4.3c-0.6,1.3-1.4,2.3-2.5,3.2c-1,0.9-2.3,1.5-3.7,2c-1.4,0.4-2.9,0.7-4.6,0.7
		c-1.2,0-2.2-0.1-3.2-0.3c-1-0.2-1.9-0.4-2.6-0.7c-0.8-0.3-1.4-0.6-1.9-0.9c-0.5-0.3-0.9-0.6-1.1-0.8c-0.2-0.2-0.3-0.5-0.5-0.8
		c-0.1-0.3-0.1-0.8-0.1-1.3c0-0.4,0-0.7,0.1-1c0-0.3,0.1-0.5,0.2-0.6c0.1-0.2,0.2-0.3,0.3-0.3c0.1-0.1,0.2-0.1,0.4-0.1
		c0.2,0,0.6,0.2,1,0.5c0.5,0.3,1,0.6,1.8,1c0.7,0.4,1.6,0.7,2.6,1c1,0.3,2.2,0.5,3.5,0.5c1,0,1.9-0.1,2.7-0.4
		c0.8-0.3,1.5-0.6,2.1-1.1c0.6-0.5,1.1-1.1,1.4-1.8c0.3-0.7,0.5-1.5,0.5-2.4c0-1-0.2-1.8-0.7-2.5c-0.4-0.7-1-1.3-1.8-1.8
		c-0.7-0.5-1.6-1-2.5-1.4c-0.9-0.4-1.9-0.9-2.8-1.3c-1-0.5-1.9-1-2.8-1.5c-0.9-0.5-1.7-1.2-2.5-1.9c-0.7-0.7-1.3-1.6-1.8-2.6
		c-0.4-1-0.7-2.2-0.7-3.6c0-1.4,0.3-2.7,0.8-3.8c0.5-1.1,1.3-2.1,2.2-2.8c0.9-0.8,2-1.3,3.3-1.7c1.3-0.4,2.7-0.6,4.2-0.6
		c0.8,0,1.5,0.1,2.3,0.2c0.8,0.1,1.5,0.3,2.2,0.5c0.7,0.2,1.3,0.5,1.8,0.7c0.5,0.3,0.9,0.5,1,0.7c0.2,0.2,0.3,0.3,0.3,0.4
		c0.1,0.1,0.1,0.2,0.1,0.4c0,0.1,0.1,0.3,0.1,0.5c0,0.2,0,0.5,0,0.8c0,0.3,0,0.6-0.1,0.9c0,0.2-0.1,0.5-0.1,0.6
		c-0.1,0.2-0.1,0.3-0.2,0.4c-0.1,0.1-0.2,0.1-0.3,0.1c-0.2,0-0.5-0.1-0.9-0.4c-0.4-0.2-0.9-0.5-1.5-0.8c-0.6-0.3-1.3-0.6-2.2-0.9
		c-0.8-0.3-1.7-0.4-2.8-0.4c-1,0-1.8,0.1-2.5,0.4c-0.7,0.2-1.3,0.6-1.8,1c-0.5,0.4-0.8,0.9-1,1.5c-0.2,0.6-0.3,1.2-0.3,1.9
		c0,1,0.2,1.8,0.7,2.5c0.4,0.7,1,1.3,1.8,1.8c0.7,0.5,1.6,1,2.5,1.5c0.9,0.4,1.9,0.9,2.9,1.4c1,0.4,1.9,0.9,2.9,1.5
		c0.9,0.5,1.8,1.2,2.5,1.9c0.7,0.7,1.3,1.6,1.8,2.6C286.3,22.7,286.5,23.9,286.5,25.2L286.5,25.2z"/>
	<path class="st3" d="M156,118.2c0,0.4-0.1,0.7-0.4,1c-0.2,0.3-0.6,0.5-1.1,0.7c-0.5,0.2-1.2,0.3-2.1,0.4c-0.9,0.1-2,0.2-3.4,0.2
		c-1.4,0-2.5-0.1-3.5-0.2c-0.9-0.1-1.6-0.2-2.1-0.4c-0.5-0.2-0.9-0.4-1.1-0.7c-0.2-0.3-0.3-0.6-0.3-1V90.4h-25.8v27.9
		c0,0.4-0.1,0.7-0.3,1c-0.2,0.3-0.6,0.5-1.1,0.7c-0.5,0.2-1.2,0.3-2.1,0.4c-0.9,0.1-2,0.2-3.4,0.2c-1.4,0-2.5-0.1-3.4-0.2
		c-0.9-0.1-1.6-0.2-2.1-0.4c-0.5-0.2-0.9-0.4-1.2-0.7c-0.2-0.3-0.3-0.6-0.3-1V53.1c0-0.4,0.1-0.7,0.3-1c0.2-0.3,0.6-0.5,1.2-0.7
		c0.5-0.2,1.2-0.3,2.1-0.4c0.9-0.1,2.1-0.2,3.4-0.2c1.4,0,2.5,0.1,3.4,0.2c0.9,0.1,1.6,0.2,2.1,0.4c0.5,0.2,0.9,0.4,1.1,0.7
		c0.2,0.3,0.3,0.6,0.3,1v25.3H142V53.1c0-0.4,0.1-0.7,0.3-1c0.2-0.3,0.6-0.5,1.1-0.7c0.5-0.2,1.2-0.3,2.1-0.4
		c0.9-0.1,2.1-0.2,3.5-0.2c1.3,0,2.5,0.1,3.4,0.2c0.9,0.1,1.6,0.2,2.1,0.4c0.5,0.2,0.9,0.4,1.1,0.7c0.2,0.3,0.4,0.6,0.4,1V118.2
		L156,118.2z"/>
	<path class="st3" d="M185.6,118.2c0,0.4-0.1,0.7-0.4,1c-0.2,0.3-0.6,0.5-1.1,0.7c-0.5,0.2-1.2,0.3-2.1,0.4c-0.9,0.1-2,0.2-3.4,0.2
		c-1.3,0-2.5-0.1-3.4-0.2c-0.9-0.1-1.6-0.2-2.1-0.4c-0.5-0.2-0.9-0.4-1.2-0.7c-0.2-0.3-0.3-0.6-0.3-1V53.1c0-0.4,0.1-0.7,0.3-1
		c0.2-0.3,0.6-0.5,1.2-0.7c0.6-0.2,1.3-0.3,2.2-0.4c0.9-0.1,2-0.2,3.4-0.2c1.4,0,2.5,0.1,3.4,0.2c0.9,0.1,1.6,0.2,2.1,0.4
		c0.5,0.2,0.9,0.4,1.1,0.7c0.2,0.3,0.4,0.6,0.4,1V118.2L185.6,118.2z"/>
	<path class="st3" d="M222.4,101c0,3.1-0.3,5.9-0.9,8.5c-0.6,2.5-1.6,4.6-3,6.4c-1.4,1.7-3.2,3.1-5.5,4c-2.3,0.9-5.1,1.4-8.4,1.4
		c-1.1,0-2.1-0.1-3.2-0.3c-1-0.1-2-0.3-2.9-0.6c-0.9-0.2-1.6-0.5-2.2-0.8c-0.6-0.3-1.1-0.5-1.3-0.7c-0.2-0.2-0.4-0.5-0.5-0.7
		c-0.1-0.2-0.3-0.6-0.4-1c-0.1-0.4-0.2-0.9-0.2-1.5c0-0.6-0.1-1.4-0.1-2.3c0-1.2,0-2.2,0.1-3c0.1-0.9,0.2-1.5,0.3-2
		c0.1-0.5,0.3-0.8,0.5-1c0.2-0.2,0.5-0.3,0.9-0.3c0.3,0,0.7,0.1,1.1,0.4c0.4,0.2,0.9,0.4,1.4,0.7c0.5,0.2,1.2,0.5,1.9,0.7
		c0.7,0.2,1.5,0.3,2.5,0.3c1,0,1.8-0.1,2.5-0.4c0.7-0.3,1.3-0.7,1.8-1.4c0.5-0.7,0.9-1.6,1.1-2.7c0.2-1.1,0.4-2.5,0.4-4.3V53
		c0-0.4,0.1-0.7,0.3-0.9c0.2-0.3,0.6-0.5,1.1-0.7c0.5-0.2,1.3-0.3,2.2-0.4c0.9-0.1,2.1-0.2,3.4-0.2c1.3,0,2.5,0.1,3.4,0.2
		c0.9,0.1,1.6,0.2,2.1,0.4c0.6,0.2,1,0.4,1.2,0.7c0.2,0.2,0.4,0.6,0.4,0.9V101L222.4,101z"/>
	<path class="st4" d="M299.8,84.9c0,5.7-0.7,10.8-2.1,15.3c-1.4,4.5-3.5,8.3-6.3,11.5c-2.8,3.1-6.3,5.5-10.4,7.2
		c-4.1,1.6-8.9,2.4-14.3,2.5c-5.4,0-10.1-0.7-14.1-2.1c-4-1.4-7.3-3.6-10-6.4c-2.7-2.9-4.7-6.5-6-11c-1.3-4.4-2-9.7-2-15.8
		c0-5.6,0.7-10.6,2.1-15c1.4-4.5,3.5-8.3,6.3-11.4c2.8-3.1,6.3-5.5,10.4-7.2c4.2-1.7,9-2.5,14.4-2.5c5.2,0,9.8,0.7,13.8,2.1
		c4,1.4,7.3,3.5,10,6.4c2.7,2.9,4.7,6.5,6.1,10.9C299.1,73.7,299.8,78.9,299.8,84.9L299.8,84.9z M285.1,85.6c0-3.6-0.3-6.9-0.9-9.9
		c-0.6-3-1.5-5.5-2.9-7.6c-1.3-2.1-3.2-3.8-5.4-4.9c-2.3-1.2-5.1-1.8-8.5-1.8c-3.4,0-6.3,0.7-8.6,2c-2.3,1.3-4.2,3-5.6,5.2
		c-1.4,2.2-2.4,4.7-3,7.6c-0.6,2.9-0.9,5.9-0.9,9.2c0,3.8,0.3,7.2,0.9,10.2c0.6,3,1.5,5.5,2.9,7.7c1.3,2.1,3.2,3.8,5.4,4.9
		c2.3,1.1,5.1,1.7,8.6,1.7c3.4,0,6.3-0.6,8.6-1.9c2.3-1.3,4.2-3,5.6-5.2c1.4-2.2,2.4-4.8,3-7.7C284.8,92.1,285.1,88.9,285.1,85.6
		L285.1,85.6z"/>
	<path class="st3" d="M349.9,114.3c0,1.1-0.1,2-0.2,2.7c-0.1,0.7-0.2,1.3-0.4,1.8c-0.2,0.5-0.4,0.8-0.7,1c-0.2,0.2-0.6,0.3-0.9,0.3
		h-31.6c-1.2,0-2.2-0.3-3-1c-0.8-0.7-1.2-1.8-1.2-3.4V53.1c0-0.4,0.1-0.7,0.3-1c0.2-0.3,0.6-0.5,1.2-0.7c0.5-0.2,1.2-0.3,2.1-0.4
		c0.9-0.1,2.1-0.2,3.4-0.2c1.4,0,2.5,0.1,3.4,0.2c0.9,0.1,1.6,0.2,2.1,0.4c0.5,0.2,0.9,0.4,1.1,0.7c0.2,0.3,0.4,0.6,0.4,1v55.5h21.7
		c0.4,0,0.7,0.1,0.9,0.3c0.3,0.2,0.5,0.5,0.7,1c0.2,0.4,0.3,1,0.4,1.8C349.9,112.3,349.9,113.2,349.9,114.3L349.9,114.3z"/>
	<path class="st3" d="M414.9,94.5c0,4.2-0.6,8-1.9,11.3c-1.2,3.3-3.1,6.2-5.5,8.5c-2.4,2.3-5.4,4.1-8.9,5.3
		c-3.6,1.2-7.6,1.8-12.3,1.8c-4.3,0-8.2-0.5-11.7-1.6c-3.4-1.1-6.4-2.8-8.7-5c-2.4-2.2-4.2-4.9-5.5-8.2c-1.2-3.3-1.9-7.2-1.9-11.6
		V53.1c0-0.4,0.1-0.7,0.3-1c0.2-0.3,0.6-0.5,1.1-0.7c0.6-0.2,1.3-0.3,2.2-0.4c0.9-0.1,2-0.2,3.4-0.2c1.3,0,2.5,0.1,3.4,0.2
		c0.9,0.1,1.6,0.2,2.1,0.4c0.5,0.2,0.9,0.4,1.1,0.7c0.2,0.3,0.4,0.6,0.4,1v40.7c0,2.7,0.3,5.1,1,7.1c0.7,2,1.6,3.6,2.9,5
		c1.3,1.3,2.8,2.3,4.5,3c1.8,0.6,3.7,1,5.9,1c2.2,0,4.2-0.3,5.9-1c1.7-0.7,3.2-1.6,4.4-2.9c1.2-1.3,2.1-2.9,2.8-4.8
		c0.7-1.9,1-4.1,1-6.5V53.1c0-0.4,0.1-0.7,0.3-1c0.2-0.3,0.6-0.5,1.1-0.7c0.5-0.2,1.2-0.3,2.1-0.4c0.9-0.1,2.1-0.2,3.4-0.2
		c1.3,0,2.4,0.1,3.3,0.2c0.9,0.1,1.6,0.2,2.1,0.4c0.5,0.2,0.9,0.4,1.1,0.7c0.2,0.3,0.3,0.6,0.3,1V94.5L414.9,94.5z"/>
	<path class="st3" d="M471.3,99.5c0,3.6-0.7,6.8-2,9.5c-1.3,2.7-3.2,5-5.5,6.9c-2.3,1.8-5,3.2-8.1,4.1c-3.1,0.9-6.4,1.4-9.9,1.4
		c-2.4,0-4.6-0.2-6.7-0.6c-2-0.4-3.8-0.9-5.4-1.4c-1.6-0.6-2.9-1.2-3.9-1.8c-1-0.6-1.8-1.1-2.2-1.6c-0.5-0.5-0.8-1.1-1-2
		c-0.2-0.9-0.3-2.1-0.3-3.8c0-1.1,0-2,0.1-2.8c0.1-0.7,0.2-1.3,0.3-1.8c0.2-0.5,0.4-0.8,0.6-1c0.3-0.2,0.6-0.3,1-0.3
		c0.5,0,1.2,0.3,2.1,0.9c0.9,0.6,2.1,1.2,3.5,1.9c1.4,0.7,3.1,1.4,5.1,2c2,0.6,4.3,0.9,6.9,0.9c1.7,0,3.2-0.2,4.6-0.6
		c1.3-0.4,2.5-1,3.4-1.8c1-0.7,1.7-1.7,2.2-2.8c0.5-1.1,0.7-2.3,0.7-3.7c0-1.6-0.4-2.9-1.3-4c-0.9-1.1-2-2.1-3.4-3
		c-1.4-0.9-2.9-1.7-4.6-2.5c-1.7-0.8-3.5-1.6-5.4-2.5c-1.8-0.9-3.6-1.8-5.4-2.9c-1.7-1.1-3.3-2.4-4.7-3.9c-1.4-1.5-2.5-3.3-3.3-5.4
		c-0.9-2.1-1.3-4.5-1.3-7.4c0-3.3,0.6-6.2,1.8-8.7c1.2-2.5,2.9-4.6,5-6.2c2.1-1.7,4.5-2.9,7.4-3.7c2.8-0.8,5.8-1.2,9-1.2
		c1.6,0,3.3,0.1,4.9,0.4c1.6,0.2,3.2,0.6,4.6,1c1.4,0.4,2.7,0.9,3.8,1.4c1.1,0.5,1.8,1,2.2,1.3c0.4,0.4,0.6,0.7,0.7,0.9
		c0.1,0.2,0.2,0.6,0.3,1c0.1,0.4,0.2,0.9,0.2,1.5c0,0.6,0.1,1.4,0.1,2.3c0,1,0,1.9-0.1,2.6c0,0.7-0.1,1.3-0.3,1.8
		c-0.1,0.5-0.3,0.8-0.5,1c-0.2,0.2-0.5,0.3-0.9,0.3c-0.4,0-1-0.2-1.9-0.7c-0.9-0.5-1.9-1-3.1-1.6c-1.2-0.6-2.7-1.1-4.3-1.6
		c-1.6-0.5-3.4-0.7-5.4-0.7c-1.5,0-2.9,0.2-4,0.6c-1.1,0.4-2.1,0.9-2.9,1.5c-0.7,0.6-1.3,1.4-1.7,2.3c-0.4,0.9-0.5,1.9-0.5,2.9
		c0,1.5,0.4,2.9,1.2,4c0.9,1.1,2,2.1,3.4,3c1.4,0.9,3,1.7,4.8,2.5c1.8,0.7,3.6,1.5,5.4,2.4c1.8,0.9,3.7,1.8,5.4,2.9
		c1.8,1.1,3.4,2.4,4.7,3.9c1.4,1.5,2.5,3.3,3.4,5.3C470.8,94.3,471.3,96.7,471.3,99.5L471.3,99.5z"/>
	<path class="st4" d="M538.9,114.9c0.4,1.3,0.7,2.3,0.8,3c0.1,0.7,0,1.3-0.4,1.7c-0.4,0.4-1.1,0.6-2.1,0.6c-1,0.1-2.4,0.2-4.1,0.2
		c-1.8,0-3.2,0-4.3-0.1c-1,0-1.8-0.1-2.3-0.3c-0.5-0.2-0.9-0.4-1.1-0.7c-0.2-0.3-0.4-0.7-0.5-1.1l-4.6-13.9h-25.9l-4.4,13.5
		c-0.1,0.5-0.3,0.9-0.6,1.3c-0.2,0.3-0.6,0.6-1.1,0.8c-0.5,0.2-1.2,0.3-2.2,0.4c-0.9,0.1-2.1,0.1-3.7,0.1c-1.6,0-2.9-0.1-3.8-0.2
		c-0.9-0.1-1.6-0.4-1.9-0.7c-0.4-0.4-0.5-1-0.4-1.8c0.1-0.7,0.4-1.7,0.8-3l21.3-61.2c0.2-0.6,0.5-1.1,0.7-1.4
		c0.3-0.4,0.7-0.7,1.3-0.9c0.6-0.2,1.5-0.3,2.6-0.4c1.1-0.1,2.6-0.1,4.4-0.1c2.1,0,3.8,0,5,0.1c1.2,0,2.2,0.2,2.9,0.4
		c0.7,0.2,1.2,0.5,1.5,0.9c0.3,0.4,0.6,0.9,0.8,1.6L538.9,114.9L538.9,114.9z M507.3,64.4L507.3,64.4l-9.8,29.3H517L507.3,64.4
		L507.3,64.4z"/>
	<path class="st5" d="M39.9,5.6c0,0-5.4,4.8-0.9,7.8v4.3c0,0-1.2,0.2-1.8-0.5c-0.6-0.7-1-3.8-7.7-4.9c0,0,2.2,8.4,9.3,8.4v11.5
		c0,0-2.6-1.9-3.2-2.3c0,0,0.1-7.9-7.1-11.2c0,0,1.3,3.8,1.8,5.1c0.5,1.3,0.8,1.5,0.8,2.4l-2.3-1.6c0,0-1.9-6.4-10.5-6.2
		c0,0,2.3,6.8,10.7,7.8l1.9,1.3c0,0-8.4-0.2-11.8,4.3c0,0,6.3,1.3,12.4-2l3.6,0.5l3.8,4.3v11.6c0,0-0.9,0.2-1.4-0.2
		c-0.4-0.3-3.5-2.9-3.5-2.9s-0.5-8.4-8.5-10c0,0,1.5,6,4.8,7.3L27,40.7c0,0-4-8.1-11.3-9.4c0,0,3.5,4.5,3.5,5.8c0,0-1.4,0-3.2-1.4
		c-1.9-1.4-4.1-3.6-9-0.6c0,0,3.5,3,9.2,2.7l3.2,0.3c0,0-2.1,1.4-3.5,2c-1.4,0.6-3.8,1.4-3.8,1.4s4.7,3.2,9.7,0.8
		c0,0,4.9-2.6,9.3,0.3c4.3,2.8,7.6,6.2,7.6,6.2l-1,0.3c0,0-6.5-4.7-9.5-5.4c0,0,0.4,2,0.9,2.8c0,0-5.5-3.4-11.6-1.4
		c0,0,4,4.7,12.1,3.2c0,0,1.9-0.4,2.8,1.7c0,0-7.2-0.3-10.4,6.4c0,0,7.2,1.1,11.6-6c0,0,2.2-1.8,5,1.4v21.2l-0.5,0.6
		c0,0-2.4-1.4-3-0.7c-0.6,0.8,1.2,2.6,1.2,2.6s-1.3,1.2-4.2,1.1c0,0-3.6-3.4-9.6-0.7c-6.1,2.7-7.2,6.4-6.6,9.2
		c0.6,2.8,4.3,5.1,12.6,1c0,0,5.8-3.8,4.1-8.6c0,0,3.4,0.5,6-3.2v7.5c0,0-6.9,0.5-8.1,11.1c-1.2,10.6,6.5,10.9,7.4,10.9
		c0.9,0,3.9-0.2,6.1-1.5l2.8,0.5l-0.1-2.3l-2.3-0.5c0,0,0.1-2.7-0.3-3.6c0,0,2.5-0.1,4.3,1.7c1.9,1.8,2,1.3,1.9,0.8
		c-0.2-0.5-4.9-6.5-4.9-6.5s0.8-6.6-4.5-10.6v-5.7l6.5,3.9c0,0-1.4,6.1,3.1,9c4.4,3,9.9,0.4,9.9,0.4l1.8,1.1c0,0,0.9,0.3,1.4,0.1
		c0.5-0.2,0.3-0.1-0.2-0.6c-0.4-0.5-2-2.3-2-2.3s1-5.9-5.1-8.7c0,0-3.3-2.4-8.6-0.1l-3.8-2.5c0,0,5.1,0,6.2-1.4c0,0,0.2-0.6-0.5-0.6
		c-0.7,0-9-0.3-9-0.3V50h4.6c0,0,1.6,4.5,10.7,3.2c0,0-0.9-3.5-8.5-4.7c0,0-0.5-1.3,1.4-1c1.9,0.3,7.4,2.6,12-2.6
		c0,0-6.1-2.9-11.9,1.6c0,0-1.4,0.4-2.8,0.5c0,0,2.6-2.3,4.1-4.5c0,0-3.9-0.4-6.6,2.6l-2.9,2.4v-2.2l4.9-5.7c0,0,13.4,2.2,14.9-4.2
		c0,0,4.3,1.3,6.9-0.7c0,0-2-2-7.6-0.6c0,0-3.4,1.2-5.7,0.6l1.1-0.6c0,0,7.7-1.8,8-5.5c0,0-8.9-0.3-14.5,6.6c0,0,1-3.8,0.2-5.8
		c0,0-4.9,2.5-6.1,10.8l-2,1.9V31.2l2.1-2.4c0,0,10.7,1.9,14.7-1.7c0,0-0.4-2-9.2-2c0,0,10.1-4.2,11.8-9.3c0,0-6.1,0.3-11.4,6.1
		c0,0,1.2-2.6,1.1-5c0,0-5.7,3.8-7,11.1l-2.1,1.2V19.1c0,0,7.7,0.3,8.4-6.6c0,0-4.7,0.3-8.3,5v-4.3C41.2,13.2,45.3,10.2,39.9,5.6
		L39.9,5.6z"/>
	<path class="st5" d="M37.8,105.9c0,0,0.2,2.8-0.3,3.6c-0.6,0.7-4,4.6-4.2,5.5c-0.2,1-0.1,1.6,0.3,1.7c0.4,0,1,0.2,1.6-1.7
		c0.6-1.9,1.4-4.1,3.1-4.1c1.7,0,2,1.3,2.3,1.7c0.3,0.3,0.7,1.1,1.4,1c0.6-0.1,0.8-1-0.1-1.9c-0.9-0.9-1.9-1.8-1.9-2.6
		c0-0.9,0-3.1,0-3.1L37.8,105.9L37.8,105.9z"/>
	<path class="st5" d="M38.1,113.2c-0.4,0-0.6-0.1-0.6,1.1c0.1,1.1,0.7,1.3,1.1,1.3c0.4,0,0.7-1.1,0.4-1.5
		C38.7,113.5,38.5,113.2,38.1,113.2L38.1,113.2z"/>
</g>
</svg>
